<svg xmlns="http://www.w3.org/2000/svg" viewBox="0 0 85.39 85.39"><defs><style>.cls-1{opacity:0.1;}.cls-2,.cls-3{fill:none;stroke:#231f20;stroke-miterlimit:10;}.cls-2{stroke-width:0.2px;}.cls-3{stroke-width:0.35px;}</style></defs><g id="Layer_2" data-name="Layer 2"><g class="cls-1"><rect class="cls-2" x="0.17" y="0.17" width="4.25" height="4.25"/><rect class="cls-2" x="4.43" y="0.17" width="4.25" height="4.25"/><rect class="cls-2" x="0.17" y="4.43" width="4.25" height="4.25"/><rect class="cls-2" x="4.43" y="4.43" width="4.25" height="4.25"/><rect class="cls-2" x="8.68" y="0.17" width="4.25" height="4.25"/><rect class="cls-2" x="12.93" y="0.17" width="4.25" height="4.25"/><rect class="cls-2" x="8.68" y="4.43" width="4.25" height="4.25"/><rect class="cls-2" x="12.93" y="4.43" width="4.25" height="4.25"/><rect class="cls-2" x="17.18" y="0.17" width="4.25" height="4.25"/><rect class="cls-2" x="21.43" y="0.17" width="4.25" height="4.25"/><rect class="cls-2" x="17.18" y="4.43" width="4.25" height="4.25"/><rect class="cls-2" x="21.43" y="4.43" width="4.25" height="4.25"/><rect class="cls-2" x="25.69" y="0.17" width="4.25" height="4.25"/><rect class="cls-2" x="29.94" y="0.17" width="4.25" height="4.25"/><rect class="cls-2" x="25.69" y="4.43" width="4.25" height="4.25"/><rect class="cls-2" x="29.94" y="4.43" width="4.25" height="4.25"/><rect class="cls-2" x="34.19" y="0.17" width="4.25" height="4.25"/><rect class="cls-2" x="38.44" y="0.17" width="4.25" height="4.25"/><rect class="cls-2" x="34.19" y="4.43" width="4.25" height="4.25"/><rect class="cls-2" x="38.44" y="4.43" width="4.25" height="4.25"/><rect class="cls-2" x="259.37" y="379.84" width="4.25" height="4.25" transform="translate(388.52 -250.69) rotate(90)"/><rect class="cls-2" x="259.37" y="384.09" width="4.25" height="4.25" transform="translate(392.77 -246.44) rotate(90)"/><rect class="cls-2" x="255.12" y="379.84" width="4.25" height="4.25" transform="translate(384.27 -246.44) rotate(90)"/><rect class="cls-2" x="255.12" y="384.09" width="4.25" height="4.25" transform="translate(388.52 -242.19) rotate(90)"/><rect class="cls-2" x="259.37" y="388.35" width="4.25" height="4.25" transform="translate(397.03 -242.19) rotate(90)"/><rect class="cls-2" x="259.37" y="392.6" width="4.25" height="4.25" transform="translate(401.28 -237.94) rotate(90)"/><rect class="cls-2" x="255.12" y="388.35" width="4.25" height="4.25" transform="translate(392.77 -237.94) rotate(90)"/><rect class="cls-2" x="255.12" y="392.6" width="4.25" height="4.25" transform="translate(397.03 -233.68) rotate(90)"/><rect class="cls-2" x="259.37" y="396.85" width="4.25" height="4.25" transform="translate(405.53 -233.68) rotate(90)"/><rect class="cls-2" x="259.37" y="401.1" width="4.25" height="4.25" transform="translate(409.78 -229.43) rotate(90)"/><rect class="cls-2" x="255.12" y="396.85" width="4.25" height="4.25" transform="translate(401.28 -229.43) rotate(90)"/><rect class="cls-2" x="255.12" y="401.1" width="4.25" height="4.25" transform="translate(405.53 -225.18) rotate(90)"/><rect class="cls-2" x="259.37" y="405.35" width="4.25" height="4.25" transform="translate(414.03 -225.18) rotate(90)"/><rect class="cls-2" x="259.37" y="409.61" width="4.25" height="4.25" transform="translate(418.29 -220.93) rotate(90)"/><rect class="cls-2" x="255.12" y="405.35" width="4.25" height="4.25" transform="translate(409.78 -220.93) rotate(90)"/><rect class="cls-2" x="255.12" y="409.61" width="4.25" height="4.25" transform="translate(414.03 -216.68) rotate(90)"/><rect class="cls-2" x="8.68" y="8.68" width="4.25" height="4.25"/><rect class="cls-2" x="12.93" y="8.68" width="4.25" height="4.25"/><rect class="cls-2" x="8.68" y="12.93" width="4.25" height="4.25"/><rect class="cls-2" x="12.93" y="12.93" width="4.25" height="4.25"/><rect class="cls-2" x="17.18" y="8.68" width="4.25" height="4.25"/><rect class="cls-2" x="21.43" y="8.68" width="4.25" height="4.25"/><rect class="cls-2" x="17.18" y="12.93" width="4.25" height="4.25"/><rect class="cls-2" x="21.43" y="12.93" width="4.25" height="4.25"/><rect class="cls-2" x="25.69" y="8.68" width="4.25" height="4.25"/><rect class="cls-2" x="29.94" y="8.68" width="4.25" height="4.25"/><rect class="cls-2" x="25.69" y="12.93" width="4.25" height="4.25"/><rect class="cls-2" x="29.94" y="12.93" width="4.25" height="4.25"/><rect class="cls-2" x="34.19" y="8.68" width="4.25" height="4.25"/><rect class="cls-2" x="38.44" y="8.68" width="4.25" height="4.25"/><rect class="cls-2" x="34.19" y="12.93" width="4.25" height="4.25"/><rect class="cls-2" x="38.44" y="12.93" width="4.25" height="4.25"/><rect class="cls-2" x="8.68" y="17.18" width="4.25" height="4.25"/><rect class="cls-2" x="12.93" y="17.18" width="4.25" height="4.25"/><rect class="cls-2" x="8.68" y="21.43" width="4.25" height="4.25"/><rect class="cls-2" x="12.93" y="21.43" width="4.25" height="4.25"/><rect class="cls-2" x="17.18" y="17.18" width="4.25" height="4.25"/><rect class="cls-2" x="21.43" y="17.18" width="4.25" height="4.25"/><rect class="cls-2" x="17.18" y="21.43" width="4.25" height="4.25"/><rect class="cls-2" x="21.43" y="21.43" width="4.25" height="4.25"/><rect class="cls-2" x="25.69" y="17.18" width="4.25" height="4.25"/><rect class="cls-2" x="29.94" y="17.18" width="4.25" height="4.25"/><rect class="cls-2" x="25.69" y="21.43" width="4.25" height="4.25"/><rect class="cls-2" x="29.94" y="21.43" width="4.25" height="4.25"/><rect class="cls-2" x="34.19" y="17.18" width="4.25" height="4.25"/><rect class="cls-2" x="38.44" y="17.18" width="4.25" height="4.25"/><rect class="cls-2" x="34.19" y="21.43" width="4.25" height="4.25"/><rect class="cls-2" x="38.44" y="21.43" width="4.25" height="4.25"/><rect class="cls-2" x="8.68" y="25.69" width="4.25" height="4.25"/><rect class="cls-2" x="12.93" y="25.69" width="4.25" height="4.25"/><rect class="cls-2" x="8.68" y="29.94" width="4.25" height="4.25"/><rect class="cls-2" x="12.93" y="29.94" width="4.25" height="4.25"/><rect class="cls-2" x="17.18" y="25.69" width="4.25" height="4.25"/><rect class="cls-2" x="21.43" y="25.69" width="4.25" height="4.25"/><rect class="cls-2" x="17.18" y="29.94" width="4.25" height="4.25"/><rect class="cls-2" x="21.43" y="29.94" width="4.25" height="4.25"/><rect class="cls-2" x="25.69" y="25.69" width="4.25" height="4.25"/><rect class="cls-2" x="29.94" y="25.69" width="4.25" height="4.25"/><rect class="cls-2" x="25.69" y="29.94" width="4.25" height="4.25"/><rect class="cls-2" x="29.94" y="29.94" width="4.25" height="4.25"/><rect class="cls-2" x="34.19" y="25.69" width="4.25" height="4.25"/><rect class="cls-2" x="38.44" y="25.69" width="4.25" height="4.25"/><rect class="cls-2" x="34.19" y="29.94" width="4.25" height="4.25"/><rect class="cls-2" x="38.44" y="29.94" width="4.25" height="4.25"/><rect class="cls-2" x="8.68" y="34.19" width="4.25" height="4.25"/><rect class="cls-2" x="12.93" y="34.19" width="4.25" height="4.25"/><rect class="cls-2" x="8.68" y="38.44" width="4.25" height="4.25"/><rect class="cls-2" x="12.93" y="38.44" width="4.25" height="4.25"/><rect class="cls-2" x="17.18" y="34.19" width="4.25" height="4.25"/><rect class="cls-2" x="21.43" y="34.19" width="4.25" height="4.25"/><rect class="cls-2" x="17.18" y="38.44" width="4.25" height="4.25"/><rect class="cls-2" x="21.43" y="38.44" width="4.25" height="4.25"/><rect class="cls-2" x="25.69" y="34.19" width="4.25" height="4.25"/><rect class="cls-2" x="29.94" y="34.19" width="4.25" height="4.25"/><rect class="cls-2" x="25.69" y="38.44" width="4.25" height="4.25"/><rect class="cls-2" x="29.94" y="38.44" width="4.25" height="4.25"/><rect class="cls-2" x="34.19" y="34.19" width="4.25" height="4.25"/><rect class="cls-2" x="38.44" y="34.19" width="4.25" height="4.25"/><rect class="cls-2" x="34.19" y="38.44" width="4.25" height="4.25"/><rect class="cls-2" x="38.44" y="38.44" width="4.25" height="4.25"/><rect class="cls-2" x="42.69" y="0.17" width="4.25" height="4.25"/><rect class="cls-2" x="46.95" y="0.17" width="4.25" height="4.25"/><rect class="cls-2" x="42.69" y="4.43" width="4.25" height="4.25"/><rect class="cls-2" x="46.95" y="4.43" width="4.25" height="4.25"/><rect class="cls-2" x="51.2" y="0.17" width="4.25" height="4.25"/><rect class="cls-2" x="55.45" y="0.17" width="4.25" height="4.25"/><rect class="cls-2" x="51.2" y="4.43" width="4.25" height="4.25"/><rect class="cls-2" x="55.45" y="4.43" width="4.25" height="4.25"/><rect class="cls-2" x="59.7" y="0.17" width="4.25" height="4.25"/><rect class="cls-2" x="63.95" y="0.17" width="4.25" height="4.25"/><rect class="cls-2" x="59.7" y="4.43" width="4.25" height="4.25"/><rect class="cls-2" x="63.95" y="4.43" width="4.25" height="4.25"/><rect class="cls-2" x="68.21" y="0.17" width="4.25" height="4.25"/><rect class="cls-2" x="72.46" y="0.17" width="4.25" height="4.25"/><rect class="cls-2" x="68.21" y="4.43" width="4.25" height="4.25"/><rect class="cls-2" x="72.46" y="4.43" width="4.25" height="4.25"/><rect class="cls-2" x="76.71" y="0.17" width="4.25" height="4.25"/><rect class="cls-2" x="80.96" y="0.17" width="4.25" height="4.25"/><rect class="cls-2" x="76.71" y="4.43" width="4.25" height="4.25"/><rect class="cls-2" x="80.96" y="4.43" width="4.25" height="4.25"/><rect class="cls-2" x="301.89" y="379.84" width="4.25" height="4.25" transform="translate(431.04 -293.21) rotate(90)"/><rect class="cls-2" x="301.89" y="384.09" width="4.25" height="4.25" transform="translate(435.29 -288.96) rotate(90)"/><rect class="cls-2" x="297.64" y="379.84" width="4.25" height="4.25" transform="translate(426.79 -288.96) rotate(90)"/><rect class="cls-2" x="297.64" y="384.09" width="4.25" height="4.25" transform="translate(431.04 -284.71) rotate(90)"/><rect class="cls-2" x="301.89" y="388.35" width="4.25" height="4.25" transform="translate(439.55 -284.71) rotate(90)"/><rect class="cls-2" x="301.89" y="392.6" width="4.25" height="4.25" transform="translate(443.8 -280.45) rotate(90)"/><rect class="cls-2" x="297.64" y="388.35" width="4.25" height="4.25" transform="translate(435.29 -280.45) rotate(90)"/><rect class="cls-2" x="297.64" y="392.6" width="4.25" height="4.25" transform="translate(439.55 -276.2) rotate(90)"/><rect class="cls-2" x="301.89" y="396.85" width="4.25" height="4.25" transform="translate(448.05 -276.2) rotate(90)"/><rect class="cls-2" x="301.89" y="401.1" width="4.25" height="4.25" transform="translate(452.3 -271.95) rotate(90)"/><rect class="cls-2" x="297.64" y="396.85" width="4.25" height="4.25" transform="translate(443.8 -271.95) rotate(90)"/><rect class="cls-2" x="297.64" y="401.1" width="4.25" height="4.25" transform="translate(448.05 -267.7) rotate(90)"/><rect class="cls-2" x="301.89" y="405.35" width="4.25" height="4.25" transform="translate(456.55 -267.7) rotate(90)"/><rect class="cls-2" x="301.89" y="409.61" width="4.25" height="4.25" transform="translate(460.8 -263.45) rotate(90)"/><rect class="cls-2" x="297.64" y="405.35" width="4.25" height="4.25" transform="translate(452.3 -263.45) rotate(90)"/><rect class="cls-2" x="297.64" y="409.61" width="4.25" height="4.25" transform="translate(456.55 -259.2) rotate(90)"/><rect class="cls-2" x="51.2" y="8.68" width="4.25" height="4.25"/><rect class="cls-2" x="55.45" y="8.68" width="4.25" height="4.25"/><rect class="cls-2" x="51.2" y="12.93" width="4.25" height="4.25"/><rect class="cls-2" x="55.45" y="12.93" width="4.25" height="4.25"/><rect class="cls-2" x="59.7" y="8.68" width="4.25" height="4.25"/><rect class="cls-2" x="63.95" y="8.68" width="4.25" height="4.25"/><rect class="cls-2" x="59.7" y="12.93" width="4.25" height="4.25"/><rect class="cls-2" x="63.95" y="12.93" width="4.25" height="4.25"/><rect class="cls-2" x="68.21" y="8.68" width="4.25" height="4.25"/><rect class="cls-2" x="72.46" y="8.68" width="4.25" height="4.25"/><rect class="cls-2" x="68.21" y="12.93" width="4.25" height="4.25"/><rect class="cls-2" x="72.46" y="12.93" width="4.25" height="4.25"/><rect class="cls-2" x="76.71" y="8.68" width="4.25" height="4.25"/><rect class="cls-2" x="80.96" y="8.68" width="4.25" height="4.25"/><rect class="cls-2" x="76.71" y="12.93" width="4.25" height="4.25"/><rect class="cls-2" x="80.96" y="12.93" width="4.25" height="4.25"/><rect class="cls-2" x="51.2" y="17.18" width="4.25" height="4.25"/><rect class="cls-2" x="55.45" y="17.18" width="4.25" height="4.25"/><rect class="cls-2" x="51.2" y="21.43" width="4.25" height="4.25"/><rect class="cls-2" x="55.45" y="21.43" width="4.25" height="4.25"/><rect class="cls-2" x="59.7" y="17.18" width="4.25" height="4.25"/><rect class="cls-2" x="63.95" y="17.18" width="4.25" height="4.25"/><rect class="cls-2" x="59.7" y="21.43" width="4.25" height="4.25"/><rect class="cls-2" x="63.95" y="21.43" width="4.25" height="4.25"/><rect class="cls-2" x="68.21" y="17.18" width="4.25" height="4.25"/><rect class="cls-2" x="72.46" y="17.18" width="4.25" height="4.25"/><rect class="cls-2" x="68.21" y="21.43" width="4.25" height="4.25"/><rect class="cls-2" x="72.46" y="21.43" width="4.25" height="4.25"/><rect class="cls-2" x="76.71" y="17.18" width="4.25" height="4.25"/><rect class="cls-2" x="80.96" y="17.18" width="4.25" height="4.25"/><rect class="cls-2" x="76.71" y="21.43" width="4.25" height="4.25"/><rect class="cls-2" x="80.96" y="21.43" width="4.25" height="4.25"/><rect class="cls-2" x="51.2" y="25.69" width="4.25" height="4.25"/><rect class="cls-2" x="55.45" y="25.69" width="4.25" height="4.25"/><rect class="cls-2" x="51.2" y="29.94" width="4.25" height="4.25"/><rect class="cls-2" x="55.45" y="29.94" width="4.25" height="4.25"/><rect class="cls-2" x="59.7" y="25.69" width="4.25" height="4.25"/><rect class="cls-2" x="63.95" y="25.69" width="4.25" height="4.25"/><rect class="cls-2" x="59.7" y="29.94" width="4.25" height="4.25"/><rect class="cls-2" x="63.95" y="29.94" width="4.25" height="4.25"/><rect class="cls-2" x="68.21" y="25.69" width="4.25" height="4.25"/><rect class="cls-2" x="72.46" y="25.69" width="4.25" height="4.25"/><rect class="cls-2" x="68.21" y="29.94" width="4.25" height="4.25"/><rect class="cls-2" x="72.46" y="29.94" width="4.25" height="4.25"/><rect class="cls-2" x="76.71" y="25.69" width="4.25" height="4.25"/><rect class="cls-2" x="80.96" y="25.69" width="4.25" height="4.25"/><rect class="cls-2" x="76.71" y="29.94" width="4.25" height="4.25"/><rect class="cls-2" x="80.96" y="29.94" width="4.25" height="4.25"/><rect class="cls-2" x="51.2" y="34.19" width="4.25" height="4.25"/><rect class="cls-2" x="55.45" y="34.19" width="4.25" height="4.25"/><rect class="cls-2" x="51.2" y="38.44" width="4.25" height="4.25"/><rect class="cls-2" x="55.45" y="38.44" width="4.25" height="4.25"/><rect class="cls-2" x="59.7" y="34.19" width="4.25" height="4.25"/><rect class="cls-2" x="63.95" y="34.19" width="4.25" height="4.25"/><rect class="cls-2" x="59.7" y="38.44" width="4.25" height="4.25"/><rect class="cls-2" x="63.95" y="38.44" width="4.25" height="4.25"/><rect class="cls-2" x="68.21" y="34.19" width="4.25" height="4.25"/><rect class="cls-2" x="72.46" y="34.19" width="4.25" height="4.25"/><rect class="cls-2" x="68.21" y="38.44" width="4.25" height="4.25"/><rect class="cls-2" x="72.46" y="38.44" width="4.25" height="4.25"/><rect class="cls-2" x="76.71" y="34.19" width="4.25" height="4.25"/><rect class="cls-2" x="80.96" y="34.19" width="4.25" height="4.25"/><rect class="cls-2" x="76.71" y="38.44" width="4.25" height="4.25"/><rect class="cls-2" x="80.96" y="38.44" width="4.25" height="4.25"/><rect class="cls-2" x="0.17" y="42.69" width="4.25" height="4.25"/><rect class="cls-2" x="4.43" y="42.69" width="4.25" height="4.25"/><rect class="cls-2" x="0.17" y="46.95" width="4.25" height="4.25"/><rect class="cls-2" x="4.43" y="46.95" width="4.25" height="4.25"/><rect class="cls-2" x="8.68" y="42.69" width="4.25" height="4.25"/><rect class="cls-2" x="12.93" y="42.69" width="4.25" height="4.25"/><rect class="cls-2" x="8.68" y="46.95" width="4.25" height="4.25"/><rect class="cls-2" x="12.93" y="46.95" width="4.25" height="4.25"/><rect class="cls-2" x="17.18" y="42.69" width="4.25" height="4.25"/><rect class="cls-2" x="21.43" y="42.69" width="4.25" height="4.25"/><rect class="cls-2" x="17.18" y="46.95" width="4.25" height="4.25"/><rect class="cls-2" x="21.43" y="46.95" width="4.25" height="4.25"/><rect class="cls-2" x="25.69" y="42.69" width="4.25" height="4.25"/><rect class="cls-2" x="29.94" y="42.69" width="4.25" height="4.25"/><rect class="cls-2" x="25.69" y="46.95" width="4.25" height="4.25"/><rect class="cls-2" x="29.94" y="46.95" width="4.25" height="4.25"/><rect class="cls-2" x="34.19" y="42.69" width="4.25" height="4.25"/><rect class="cls-2" x="38.44" y="42.69" width="4.25" height="4.25"/><rect class="cls-2" x="34.19" y="46.95" width="4.25" height="4.25"/><rect class="cls-2" x="38.44" y="46.95" width="4.25" height="4.25"/><rect class="cls-2" x="259.37" y="422.36" width="4.25" height="4.25" transform="translate(431.04 -208.17) rotate(90)"/><rect class="cls-2" x="259.37" y="426.61" width="4.25" height="4.25" transform="translate(435.29 -203.92) rotate(90)"/><rect class="cls-2" x="255.12" y="422.36" width="4.25" height="4.25" transform="translate(426.79 -203.92) rotate(90)"/><rect class="cls-2" x="255.12" y="426.61" width="4.25" height="4.25" transform="translate(431.04 -199.67) rotate(90)"/><rect class="cls-2" x="259.37" y="430.87" width="4.25" height="4.25" transform="translate(439.55 -199.67) rotate(90)"/><rect class="cls-2" x="259.37" y="435.12" width="4.25" height="4.25" transform="translate(443.8 -195.42) rotate(90)"/><rect class="cls-2" x="255.12" y="430.87" width="4.25" height="4.25" transform="translate(435.29 -195.42) rotate(90)"/><rect class="cls-2" x="255.12" y="435.12" width="4.25" height="4.25" transform="translate(439.55 -191.16) rotate(90)"/><rect class="cls-2" x="259.37" y="439.37" width="4.25" height="4.25" transform="translate(448.05 -191.16) rotate(90)"/><rect class="cls-2" x="259.37" y="443.62" width="4.25" height="4.25" transform="translate(452.3 -186.91) rotate(90)"/><rect class="cls-2" x="255.12" y="439.37" width="4.25" height="4.25" transform="translate(443.8 -186.91) rotate(90)"/><rect class="cls-2" x="255.12" y="443.62" width="4.25" height="4.25" transform="translate(448.05 -182.66) rotate(90)"/><rect class="cls-2" x="259.37" y="447.87" width="4.25" height="4.25" transform="translate(456.55 -182.66) rotate(90)"/><rect class="cls-2" x="259.37" y="452.13" width="4.25" height="4.25" transform="translate(460.8 -178.41) rotate(90)"/><rect class="cls-2" x="255.12" y="447.87" width="4.25" height="4.25" transform="translate(452.3 -178.41) rotate(90)"/><rect class="cls-2" x="255.12" y="452.13" width="4.25" height="4.25" transform="translate(456.55 -174.16) rotate(90)"/><rect class="cls-2" x="8.68" y="51.2" width="4.25" height="4.25"/><rect class="cls-2" x="12.93" y="51.2" width="4.25" height="4.25"/><rect class="cls-2" x="8.68" y="55.45" width="4.25" height="4.25"/><rect class="cls-2" x="12.93" y="55.45" width="4.25" height="4.25"/><rect class="cls-2" x="17.18" y="51.2" width="4.25" height="4.25"/><rect class="cls-2" x="21.43" y="51.2" width="4.25" height="4.25"/><rect class="cls-2" x="17.18" y="55.45" width="4.25" height="4.25"/><rect class="cls-2" x="21.43" y="55.45" width="4.25" height="4.25"/><rect class="cls-2" x="25.69" y="51.2" width="4.25" height="4.25"/><rect class="cls-2" x="29.94" y="51.2" width="4.25" height="4.25"/><rect class="cls-2" x="25.69" y="55.45" width="4.25" height="4.25"/><rect class="cls-2" x="29.94" y="55.45" width="4.25" height="4.25"/><rect class="cls-2" x="34.19" y="51.2" width="4.25" height="4.25"/><rect class="cls-2" x="38.44" y="51.2" width="4.25" height="4.25"/><rect class="cls-2" x="34.19" y="55.45" width="4.25" height="4.25"/><rect class="cls-2" x="38.44" y="55.45" width="4.25" height="4.25"/><rect class="cls-2" x="8.68" y="59.7" width="4.25" height="4.25"/><rect class="cls-2" x="12.93" y="59.7" width="4.25" height="4.25"/><rect class="cls-2" x="8.68" y="63.95" width="4.25" height="4.25"/><rect class="cls-2" x="12.93" y="63.95" width="4.25" height="4.25"/><rect class="cls-2" x="17.18" y="59.7" width="4.25" height="4.25"/><rect class="cls-2" x="21.43" y="59.7" width="4.25" height="4.25"/><rect class="cls-2" x="17.18" y="63.95" width="4.25" height="4.25"/><rect class="cls-2" x="21.43" y="63.95" width="4.25" height="4.25"/><rect class="cls-2" x="25.69" y="59.7" width="4.25" height="4.25"/><rect class="cls-2" x="29.94" y="59.7" width="4.25" height="4.25"/><rect class="cls-2" x="25.69" y="63.95" width="4.25" height="4.25"/><rect class="cls-2" x="29.94" y="63.95" width="4.25" height="4.25"/><rect class="cls-2" x="34.19" y="59.7" width="4.25" height="4.25"/><rect class="cls-2" x="38.44" y="59.7" width="4.25" height="4.25"/><rect class="cls-2" x="34.19" y="63.95" width="4.25" height="4.25"/><rect class="cls-2" x="38.44" y="63.95" width="4.25" height="4.25"/><rect class="cls-2" x="8.68" y="68.21" width="4.25" height="4.25"/><rect class="cls-2" x="12.93" y="68.21" width="4.25" height="4.25"/><rect class="cls-2" x="8.68" y="72.46" width="4.25" height="4.25"/><rect class="cls-2" x="12.93" y="72.46" width="4.25" height="4.25"/><rect class="cls-2" x="17.18" y="68.21" width="4.25" height="4.25"/><rect class="cls-2" x="21.43" y="68.21" width="4.25" height="4.25"/><rect class="cls-2" x="17.18" y="72.46" width="4.25" height="4.25"/><rect class="cls-2" x="21.43" y="72.46" width="4.25" height="4.25"/><rect class="cls-2" x="25.69" y="68.21" width="4.25" height="4.25"/><rect class="cls-2" x="29.94" y="68.21" width="4.25" height="4.25"/><rect class="cls-2" x="25.69" y="72.46" width="4.25" height="4.25"/><rect class="cls-2" x="29.94" y="72.46" width="4.25" height="4.25"/><rect class="cls-2" x="34.19" y="68.21" width="4.25" height="4.25"/><rect class="cls-2" x="38.44" y="68.21" width="4.25" height="4.25"/><rect class="cls-2" x="34.19" y="72.46" width="4.25" height="4.25"/><rect class="cls-2" x="38.44" y="72.46" width="4.25" height="4.25"/><rect class="cls-2" x="8.68" y="76.71" width="4.25" height="4.25"/><rect class="cls-2" x="12.93" y="76.71" width="4.25" height="4.25"/><rect class="cls-2" x="8.68" y="80.96" width="4.25" height="4.25"/><rect class="cls-2" x="12.93" y="80.96" width="4.25" height="4.25"/><rect class="cls-2" x="17.18" y="76.71" width="4.25" height="4.25"/><rect class="cls-2" x="21.43" y="76.71" width="4.25" height="4.25"/><rect class="cls-2" x="17.18" y="80.96" width="4.25" height="4.25"/><rect class="cls-2" x="21.43" y="80.96" width="4.25" height="4.25"/><rect class="cls-2" x="25.69" y="76.71" width="4.25" height="4.25"/><rect class="cls-2" x="29.94" y="76.71" width="4.25" height="4.25"/><rect class="cls-2" x="25.69" y="80.96" width="4.25" height="4.25"/><rect class="cls-2" x="29.94" y="80.96" width="4.25" height="4.25"/><rect class="cls-2" x="34.19" y="76.71" width="4.25" height="4.25"/><rect class="cls-2" x="38.44" y="76.71" width="4.25" height="4.25"/><rect class="cls-2" x="34.19" y="80.96" width="4.25" height="4.25"/><rect class="cls-2" x="38.44" y="80.96" width="4.25" height="4.25"/><rect class="cls-2" x="42.69" y="42.69" width="4.25" height="4.25"/><rect class="cls-2" x="46.95" y="42.69" width="4.25" height="4.25"/><rect class="cls-2" x="42.69" y="46.95" width="4.25" height="4.25"/><rect class="cls-2" x="46.95" y="46.95" width="4.25" height="4.25"/><rect class="cls-2" x="51.2" y="42.69" width="4.25" height="4.25"/><rect class="cls-2" x="55.45" y="42.69" width="4.25" height="4.25"/><rect class="cls-2" x="51.2" y="46.95" width="4.25" height="4.25"/><rect class="cls-2" x="55.45" y="46.95" width="4.25" height="4.25"/><rect class="cls-2" x="59.7" y="42.69" width="4.25" height="4.25"/><rect class="cls-2" x="63.95" y="42.69" width="4.25" height="4.25"/><rect class="cls-2" x="59.7" y="46.95" width="4.25" height="4.25"/><rect class="cls-2" x="63.95" y="46.95" width="4.25" height="4.25"/><rect class="cls-2" x="68.21" y="42.69" width="4.25" height="4.25"/><rect class="cls-2" x="72.46" y="42.69" width="4.25" height="4.25"/><rect class="cls-2" x="68.21" y="46.95" width="4.25" height="4.25"/><rect class="cls-2" x="72.46" y="46.95" width="4.25" height="4.25"/><rect class="cls-2" x="76.71" y="42.69" width="4.25" height="4.25"/><rect class="cls-2" x="80.96" y="42.69" width="4.25" height="4.25"/><rect class="cls-2" x="76.71" y="46.95" width="4.25" height="4.25"/><rect class="cls-2" x="80.96" y="46.95" width="4.25" height="4.25"/><rect class="cls-2" x="301.89" y="422.36" width="4.25" height="4.25" transform="translate(473.56 -250.69) rotate(90)"/><rect class="cls-2" x="301.89" y="426.61" width="4.25" height="4.25" transform="translate(477.81 -246.44) rotate(90)"/><rect class="cls-2" x="297.64" y="422.36" width="4.25" height="4.25" transform="translate(469.31 -246.44) rotate(90)"/><rect class="cls-2" x="297.64" y="426.61" width="4.25" height="4.25" transform="translate(473.56 -242.19) rotate(90)"/><rect class="cls-2" x="301.89" y="430.87" width="4.25" height="4.25" transform="translate(482.06 -242.19) rotate(90)"/><rect class="cls-2" x="301.89" y="435.12" width="4.25" height="4.25" transform="translate(486.32 -237.94) rotate(90)"/><rect class="cls-2" x="297.64" y="430.87" width="4.25" height="4.25" transform="translate(477.81 -237.94) rotate(90)"/><rect class="cls-2" x="297.64" y="435.12" width="4.25" height="4.25" transform="translate(482.06 -233.68) rotate(90)"/><rect class="cls-2" x="301.89" y="439.37" width="4.25" height="4.25" transform="translate(490.57 -233.68) rotate(90)"/><rect class="cls-2" x="301.89" y="443.62" width="4.25" height="4.25" transform="translate(494.82 -229.43) rotate(90)"/><rect class="cls-2" x="297.64" y="439.37" width="4.25" height="4.25" transform="translate(486.32 -229.43) rotate(90)"/><rect class="cls-2" x="297.64" y="443.62" width="4.25" height="4.25" transform="translate(490.57 -225.18) rotate(90)"/><rect class="cls-2" x="301.89" y="447.87" width="4.25" height="4.25" transform="translate(499.07 -225.18) rotate(90)"/><rect class="cls-2" x="301.89" y="452.13" width="4.25" height="4.25" transform="translate(503.32 -220.93) rotate(90)"/><rect class="cls-2" x="297.64" y="447.87" width="4.25" height="4.25" transform="translate(494.82 -220.93) rotate(90)"/><rect class="cls-2" x="297.64" y="452.13" width="4.25" height="4.25" transform="translate(499.07 -216.68) rotate(90)"/><rect class="cls-2" x="51.2" y="51.2" width="4.25" height="4.25"/><rect class="cls-2" x="55.45" y="51.2" width="4.25" height="4.25"/><rect class="cls-2" x="51.2" y="55.45" width="4.25" height="4.25"/><rect class="cls-2" x="55.45" y="55.45" width="4.25" height="4.25"/><rect class="cls-2" x="59.7" y="51.2" width="4.25" height="4.25"/><rect class="cls-2" x="63.95" y="51.2" width="4.25" height="4.25"/><rect class="cls-2" x="59.7" y="55.45" width="4.25" height="4.25"/><rect class="cls-2" x="63.95" y="55.45" width="4.25" height="4.25"/><rect class="cls-2" x="68.21" y="51.2" width="4.25" height="4.25"/><rect class="cls-2" x="72.46" y="51.2" width="4.25" height="4.25"/><rect class="cls-2" x="68.21" y="55.45" width="4.25" height="4.25"/><rect class="cls-2" x="72.46" y="55.45" width="4.25" height="4.25"/><rect class="cls-2" x="76.71" y="51.2" width="4.25" height="4.25"/><rect class="cls-2" x="80.96" y="51.2" width="4.25" height="4.25"/><rect class="cls-2" x="76.71" y="55.45" width="4.25" height="4.25"/><rect class="cls-2" x="80.96" y="55.45" width="4.25" height="4.25"/><rect class="cls-2" x="51.2" y="59.7" width="4.25" height="4.25"/><rect class="cls-2" x="55.45" y="59.7" width="4.25" height="4.25"/><rect class="cls-2" x="51.2" y="63.95" width="4.25" height="4.25"/><rect class="cls-2" x="55.45" y="63.95" width="4.25" height="4.25"/><rect class="cls-2" x="59.7" y="59.7" width="4.25" height="4.25"/><rect class="cls-2" x="63.95" y="59.7" width="4.25" height="4.25"/><rect class="cls-2" x="59.7" y="63.95" width="4.25" height="4.25"/><rect class="cls-2" x="63.95" y="63.95" width="4.25" height="4.25"/><rect class="cls-2" x="68.21" y="59.7" width="4.25" height="4.25"/><rect class="cls-2" x="72.46" y="59.7" width="4.25" height="4.25"/><rect class="cls-2" x="68.21" y="63.95" width="4.25" height="4.25"/><rect class="cls-2" x="72.46" y="63.95" width="4.25" height="4.25"/><rect class="cls-2" x="76.71" y="59.7" width="4.25" height="4.25"/><rect class="cls-2" x="80.96" y="59.7" width="4.25" height="4.25"/><rect class="cls-2" x="76.71" y="63.95" width="4.25" height="4.25"/><rect class="cls-2" x="80.96" y="63.95" width="4.25" height="4.25"/><rect class="cls-2" x="51.2" y="68.21" width="4.25" height="4.25"/><rect class="cls-2" x="55.45" y="68.21" width="4.25" height="4.25"/><rect class="cls-2" x="51.2" y="72.46" width="4.25" height="4.25"/><rect class="cls-2" x="55.45" y="72.46" width="4.25" height="4.25"/><rect class="cls-2" x="59.7" y="68.21" width="4.25" height="4.25"/><rect class="cls-2" x="63.95" y="68.21" width="4.25" height="4.25"/><rect class="cls-2" x="59.7" y="72.46" width="4.25" height="4.25"/><rect class="cls-2" x="63.95" y="72.46" width="4.25" height="4.25"/><rect class="cls-2" x="68.21" y="68.21" width="4.25" height="4.25"/><rect class="cls-2" x="72.46" y="68.21" width="4.25" height="4.25"/><rect class="cls-2" x="68.21" y="72.46" width="4.25" height="4.25"/><rect class="cls-2" x="72.46" y="72.46" width="4.25" height="4.25"/><rect class="cls-2" x="76.71" y="68.21" width="4.25" height="4.25"/><rect class="cls-2" x="80.96" y="68.21" width="4.25" height="4.25"/><rect class="cls-2" x="76.71" y="72.46" width="4.25" height="4.25"/><rect class="cls-2" x="80.96" y="72.46" width="4.25" height="4.25"/><rect class="cls-2" x="51.2" y="76.71" width="4.25" height="4.25"/><rect class="cls-2" x="55.45" y="76.71" width="4.25" height="4.25"/><rect class="cls-2" x="51.2" y="80.96" width="4.25" height="4.25"/><rect class="cls-2" x="55.45" y="80.96" width="4.25" height="4.25"/><rect class="cls-2" x="59.7" y="76.71" width="4.25" height="4.25"/><rect class="cls-2" x="63.95" y="76.71" width="4.25" height="4.25"/><rect class="cls-2" x="59.7" y="80.96" width="4.25" height="4.25"/><rect class="cls-2" x="63.95" y="80.96" width="4.25" height="4.25"/><rect class="cls-2" x="68.21" y="76.71" width="4.25" height="4.25"/><rect class="cls-2" x="72.46" y="76.71" width="4.25" height="4.25"/><rect class="cls-2" x="68.21" y="80.96" width="4.25" height="4.25"/><rect class="cls-2" x="72.46" y="80.96" width="4.25" height="4.25"/><rect class="cls-2" x="76.71" y="76.71" width="4.25" height="4.25"/><rect class="cls-2" x="80.96" y="76.71" width="4.25" height="4.25"/><rect class="cls-2" x="76.71" y="80.96" width="4.25" height="4.25"/><rect class="cls-2" x="80.96" y="80.96" width="4.25" height="4.25"/><rect class="cls-3" x="0.17" y="0.17" width="85.04" height="85.04"/></g></g></svg>