<svg id="Layer_1" data-name="Layer 1" xmlns="http://www.w3.org/2000/svg" viewBox="0 0 26.38 56.78"><defs><style>.cls-1{fill:#1e1e20;fill-rule:evenodd;}</style></defs><path class="cls-1" d="M291.26,421.17v27.45a.72.72,0,0,0,.72.72h10.19a.72.72,0,0,0,.72-.72v-27.9h7.39a.71.71,0,0,0,.71-.65l.71-8.41a.71.71,0,0,0-.71-.77h-8.1v-6a2.53,2.53,0,0,1,2.53-2.53h5.69a.71.71,0,0,0,.72-.71v-8.41a.72.72,0,0,0-.72-.72h-9.62a10.23,10.23,0,0,0-10.23,10.23v8.11h-5.1a.71.71,0,0,0-.71.71V420a.71.71,0,0,0,.71.71h5.1Z" transform="translate(-285.45 -392.55)"/></svg>