<svg id="Layer_1" data-name="Layer 1" xmlns="http://www.w3.org/2000/svg" viewBox="0 0 86.03 79.67"><defs><style>.cls-1{fill:#1f1e20;}</style></defs><path class="cls-1" d="M317.46,348.46h-.69a25.67,25.67,0,0,0-19.13,8.71,25.63,25.63,0,0,0-19.12-8.71,23.69,23.69,0,0,0-23.9,23.34v.69c0,16.24,14.14,29.23,35.56,48.91l7.45,6.73,6.51-5.87.93-.85c21.42-19.68,35.58-32.68,35.58-48.91A23.65,23.65,0,0,0,317.46,348.46Zm15.66,24c0,5.81-2.51,11.53-8.13,18.52a259.16,259.16,0,0,1-25.06,24.87L297.64,418l-2.28-2.09a258.54,258.54,0,0,1-25-24.87c-5.64-7-8.15-12.72-8.15-18.54a16.61,16.61,0,0,1,4.7-11.76,16.26,16.26,0,0,1,11.4-4.74h.19a18.25,18.25,0,0,1,13.75,6.49l5.38,6.4,5.42-6.4A18.16,18.16,0,0,1,316.8,356a16.23,16.23,0,0,1,11.62,4.71,16.63,16.63,0,0,1,4.7,11.81Z" transform="translate(-254.62 -348.46)"/></svg>