<svg id="Layer_1" data-name="Layer 1" xmlns="http://www.w3.org/2000/svg" viewBox="0 0 58 58"><defs><style>.cls-1{fill:#1e1e20;}</style></defs><path class="cls-1" d="M313.23,402.34a3.49,3.49,0,1,0,3.48,3.48A3.48,3.48,0,0,0,313.23,402.34Zm-15.48,4.47a14.63,14.63,0,1,0,14.63,14.62A14.64,14.64,0,0,0,297.75,406.81Zm0,24a9.37,9.37,0,1,1,9.37-9.37A9.38,9.38,0,0,1,297.75,430.8Zm29.51-21a17.84,17.84,0,0,0-17.84-17.84H287.1a17.84,17.84,0,0,0-17.84,17.84V432.1a17.83,17.83,0,0,0,17.84,17.84h22.32a17.84,17.84,0,0,0,17.84-17.84Zm-5,23.91A12.25,12.25,0,0,1,310,445.94H286.51a12.24,12.24,0,0,1-12.25-12.25V410.2a12.25,12.25,0,0,1,12.25-12.26H310a12.26,12.26,0,0,1,12.26,12.26Z" transform="translate(-269.26 -391.94)"/></svg>