<svg id="Layer_1" data-name="Layer 1" xmlns="http://www.w3.org/2000/svg" viewBox="0 0 85.04 54.12"><defs><style>.cls-1{fill:#1e1e20;}</style></defs><path class="cls-1" d="M249.17,309.55a3.88,3.88,0,0,0-4,.19l-34.78,23.19a3.86,3.86,0,0,0,0,6.44l34.78,23.19a3.9,3.9,0,0,0,2.15.65,3.81,3.81,0,0,0,1.82-.46,3.85,3.85,0,0,0,2-3.41V313A3.85,3.85,0,0,0,249.17,309.55Zm-5.69,42.57-23.95-16,23.95-16Z" transform="translate(-208.69 -309.09)"/><path class="cls-1" d="M291.69,309.55a3.88,3.88,0,0,0-4,.19l-34.78,23.19a3.86,3.86,0,0,0,0,6.44l34.78,23.19a3.9,3.9,0,0,0,2.15.65,3.81,3.81,0,0,0,1.82-.46,3.85,3.85,0,0,0,2-3.41V313A3.85,3.85,0,0,0,291.69,309.55ZM286,352.12l-23.95-16,23.95-16Z" transform="translate(-208.69 -309.09)"/></svg>