<svg id="Layer_1" data-name="Layer 1" xmlns="http://www.w3.org/2000/svg" viewBox="0 0 55.06 45.47"><defs><style>.cls-1,.cls-2{fill:#1e1e20;}.cls-2{fill-rule:evenodd;}</style></defs><path class="cls-1" d="M325.26,403.36a22.26,22.26,0,0,1-5.54,1.6c.9-.15,2.25-1.78,2.78-2.44a10.19,10.19,0,0,0,1.87-3.38c0-.1.09-.22,0-.29a.32.32,0,0,0-.29,0,28.13,28.13,0,0,1-6.62,2.54.44.44,0,0,1-.46-.12,4.63,4.63,0,0,0-.58-.59,11.57,11.57,0,0,0-3.21-2,11.18,11.18,0,0,0-4.92-.79,11.6,11.6,0,0,0-4.67,1.32,11.91,11.91,0,0,0-3.77,3.07,11.66,11.66,0,0,0-2.24,4.51,12.1,12.1,0,0,0-.12,4.76c0,.26,0,.3-.23.26-9.1-1.35-16.64-4.61-22.76-11.59-.27-.3-.41-.3-.63,0-2.68,4-1.38,10.47,2,13.64.44.42.9.84,1.39,1.23a11.9,11.9,0,0,1-4.39-1.23c-.26-.17-.4-.08-.42.23a6.45,6.45,0,0,0,.07,1.3,11.66,11.66,0,0,0,7.19,9.3,6.32,6.32,0,0,0,1.46.45,13,13,0,0,1-4.3.13c-.32-.06-.44.1-.32.4,1.9,5.17,6,6.71,9.05,7.58.41.07.82.07,1.24.17,0,0-.05,0-.08.07-1,1.55-4.54,2.7-6.18,3.28a22.19,22.19,0,0,1-9.39,1.2c-.5-.07-.61-.07-.74,0s0,.21.14.34c.64.42,1.29.79,2,1.16a31.46,31.46,0,0,0,6.27,2.51c11.28,3.11,24,.82,32.45-7.59,6.65-6.61,9-15.72,9-24.84,0-.36.42-.56.67-.74a21.65,21.65,0,0,0,4.31-4.6,1.14,1.14,0,0,0,.19-.88v-.05C325.38,403.22,325.48,403.26,325.26,403.36Z" transform="translate(-270.35 -397.91)"/><path class="cls-2" d="M286.74,443.19Z" transform="translate(-270.35 -397.91)"/><path class="cls-2" d="M286.74,443.19Z" transform="translate(-270.35 -397.91)"/><path class="cls-2" d="M288.6,443.24c0-.09,1,0,0,0C288.6,443.19,288.72,443.24,288.6,443.24Z" transform="translate(-270.35 -397.91)"/><path class="cls-2" d="M308.13,398a.19.19,0,0,1-.23,0Z" transform="translate(-270.35 -397.91)"/></svg>