<svg id="Layer_1" data-name="Layer 1" xmlns="http://www.w3.org/2000/svg" viewBox="0 0 28.35 28.35"><defs><style>.cls-1{fill:#4eb748;}</style></defs><path class="cls-1" d="M297.64,284.53a14.18,14.18,0,1,0,14.17,14.17A14.17,14.17,0,0,0,297.64,284.53Zm-2.81,23.06H291.1l-2.71-17.91h2.84l1.84,13.89h.05L295,289.68h2.59ZM307,295.46h-2.66v-1.71c0-1.18-.49-1.77-1.46-1.77s-1.46.59-1.46,1.77v9.8c0,1.16.49,1.74,1.46,1.74s1.46-.58,1.46-1.74V300H303v-2.56H307v5.86a4.73,4.73,0,0,1-1.08,3.34,4.74,4.74,0,0,1-6.24,0,4.72,4.72,0,0,1-1.07-3.34v-9.41a4.72,4.72,0,0,1,1.07-3.34,4.75,4.75,0,0,1,6.24,0,4.73,4.73,0,0,1,1.08,3.34Z" transform="translate(-283.46 -284.53)"/></svg>